<svg width="32" height="32" viewBox="0 0 32 32" fill="none" xmlns="http://www.w3.org/2000/svg">
<line y1="24.5" x2="32" y2="24.5" stroke="#D9D9D9" stroke-width="3"/>
<line y1="15.5" x2="32" y2="15.5" stroke="#D9D9D9" stroke-width="3"/>
<line y1="7.5" x2="32" y2="7.5" stroke="#D9D9D9" stroke-width="3"/>
<path d="M0.671367 0.671367C0.883644 0.458553 1.13582 0.289707 1.41345 0.174503C1.69108 0.0592985 1.98872 0 2.2893 0C2.58989 0 2.88752 0.0592985 3.16515 0.174503C3.44278 0.289707 3.69496 0.458553 3.90723 0.671367L16.0006 12.7693L28.094 0.671367C28.3064 0.458897 28.5587 0.290356 28.8363 0.175368C29.1139 0.0603802 29.4114 0.00119646 29.7119 0.00119646C30.0124 0.00119646 30.3099 0.0603802 30.5875 0.175368C30.8651 0.290356 31.1174 0.458897 31.3298 0.671367C31.5423 0.883837 31.7108 1.13608 31.8258 1.41368C31.9408 1.69129 32 1.98882 32 2.2893C32 2.58978 31.9408 2.88732 31.8258 3.16492C31.7108 3.44253 31.5423 3.69476 31.3298 3.90723L19.2319 16.0006L31.3298 28.094C31.5423 28.3064 31.7108 28.5587 31.8258 28.8363C31.9408 29.1139 32 29.4114 32 29.7119C32 30.0124 31.9408 30.3099 31.8258 30.5875C31.7108 30.8651 31.5423 31.1174 31.3298 31.3298C31.1174 31.5423 30.8651 31.7108 30.5875 31.8258C30.3099 31.9408 30.0124 32 29.7119 32C29.4114 32 29.1139 31.9408 28.8363 31.8258C28.5587 31.7108 28.3064 31.5423 28.094 31.3298L16.0006 19.2319L3.90723 31.3298C3.69476 31.5423 3.44253 31.7108 3.16492 31.8258C2.88732 31.9408 2.58978 32 2.2893 32C1.98882 32 1.69129 31.9408 1.41368 31.8258C1.13608 31.7108 0.883837 31.5423 0.671367 31.3298C0.458897 31.1174 0.290356 30.8651 0.175368 30.5875C0.0603802 30.3099 0.00119646 30.0124 0.00119646 29.7119C0.00119646 29.4114 0.0603802 29.1139 0.175368 28.8363C0.290356 28.5587 0.458897 28.3064 0.671367 28.094L12.7693 16.0006L0.671367 3.90723C0.458553 3.69496 0.289707 3.44278 0.174503 3.16515C0.0592985 2.88752 0 2.58989 0 2.2893C0 1.98872 0.0592985 1.69108 0.174503 1.41345C0.289707 1.13582 0.458553 0.883644 0.671367 0.671367Z" fill="#333333"/>
</svg>
